<?xml version="1.0" encoding="UTF-8" ?>
<!DOCTYPE svg PUBLIC "-//W3C//DTD SVG 1.1//EN" "http://www.w3.org/Graphics/SVG/1.1/DTD/svg11.dtd">
<svg width="323pt" height="59pt" viewBox="0 0 323 59" version="1.1" xmlns="http://www.w3.org/2000/svg">
<path fill="#224056" d=" M 0.00 0.00 L 127.00 0.00 C 127.00 19.67 127.00 39.33 127.00 59.00 L 0.00 59.00 L 0.00 0.00 Z" />
<path fill="#ffffff" d=" M 127.00 0.00 L 323.00 0.00 L 323.00 40.45 C 317.79 40.46 312.57 40.50 307.36 40.39 C 307.37 41.46 307.37 42.53 307.36 43.59 C 312.57 43.48 317.79 43.64 323.00 43.45 L 323.00 59.00 L 127.00 59.00 C 127.00 39.33 127.00 19.67 127.00 0.00 Z" />
<path fill="#ffffff" d=" M 5.00 5.00 C 44.00 5.00 83.00 5.00 122.00 5.00 C 122.00 21.33 122.00 37.67 122.00 54.00 C 83.00 54.00 44.00 54.00 5.00 54.00 C 5.00 37.67 5.00 21.33 5.00 5.00 Z" />
<path fill="#224056" d=" M 79.26 12.00 C 80.97 12.00 82.69 12.00 84.40 12.00 C 84.40 13.33 84.40 14.67 84.40 16.00 C 82.69 16.00 80.97 16.00 79.26 16.00 C 79.26 14.67 79.26 13.33 79.26 12.00 Z" />
<path fill="#224056" d=" M 29.13 14.00 C 30.84 14.00 32.56 14.00 34.27 14.00 C 34.11 20.64 34.58 27.32 34.05 33.94 C 32.63 40.59 22.96 42.01 18.68 37.36 C 17.46 35.88 17.25 33.90 16.71 32.13 C 18.49 32.07 20.27 32.01 22.05 31.94 C 22.21 32.75 22.53 34.38 22.69 35.19 C 24.12 35.65 25.57 36.02 27.04 36.29 C 27.82 34.96 29.12 33.77 29.05 32.10 C 29.29 26.07 29.05 20.03 29.13 14.00 Z" />
<path fill="#224056" d=" M 263.86 16.53 C 265.61 16.54 267.38 16.54 269.14 16.53 C 269.13 18.02 269.13 19.51 269.13 20.99 C 269.91 21.00 271.48 21.00 272.27 21.00 C 272.26 22.33 272.26 23.67 272.27 25.00 C 271.48 25.00 269.91 25.00 269.13 25.01 C 269.14 28.58 269.10 32.15 269.21 35.72 C 269.97 35.83 271.48 36.03 272.23 36.14 C 272.31 37.41 272.39 38.68 272.47 39.95 C 269.75 39.95 265.91 40.53 264.55 37.46 C 263.32 33.46 264.04 29.15 263.88 25.02 C 263.19 25.01 261.81 24.99 261.13 24.99 C 261.12 23.66 261.12 22.34 261.13 21.01 C 261.81 21.01 263.19 20.99 263.88 20.98 C 263.87 19.50 263.86 18.01 263.86 16.53 Z" />
<path fill="#224056" d=" M 38.87 21.00 C 40.58 21.00 42.29 21.00 44.01 21.00 C 44.29 25.76 43.30 30.71 44.64 35.33 C 46.31 36.61 48.38 35.55 50.21 35.33 C 50.29 30.56 50.26 25.78 50.26 21.00 C 51.98 21.00 53.69 21.00 55.40 21.00 C 55.40 27.39 55.41 33.78 55.39 40.18 C 53.52 39.94 51.04 40.56 50.36 38.19 C 47.06 40.76 41.29 40.88 39.50 36.48 C 38.21 31.45 39.13 26.14 38.87 21.00 Z" />
<path fill="#224056" d=" M 58.86 21.00 C 60.47 21.00 62.08 21.00 63.70 21.01 C 63.69 21.52 63.69 22.55 63.68 23.07 C 66.97 20.58 72.71 19.77 74.77 24.18 C 76.17 29.31 75.19 34.74 75.47 40.00 C 73.73 40.00 71.99 40.00 70.25 40.00 C 70.09 35.42 70.70 30.76 69.91 26.22 C 68.64 24.07 66.00 25.42 64.11 25.72 C 63.93 30.48 64.02 35.24 64.00 40.00 C 62.29 40.00 60.58 40.00 58.87 40.00 C 58.87 33.67 58.87 27.33 58.86 21.00 Z" />
<path fill="#224056" d=" M 79.26 21.00 C 80.97 21.00 82.69 21.00 84.40 21.00 C 84.40 27.33 84.40 33.67 84.40 40.00 C 82.69 40.00 80.97 40.00 79.26 40.00 C 79.26 33.67 79.26 27.33 79.26 21.00 Z" />
<path fill="#224056" d=" M 93.42 21.62 C 97.40 20.05 102.74 21.19 104.87 25.16 C 106.81 28.81 106.67 33.74 104.06 37.03 C 100.38 41.51 92.02 41.04 89.35 35.72 C 86.90 31.02 88.03 23.73 93.42 21.62 Z" />
<path fill="#224056" d=" M 109.00 20.99 C 110.60 21.00 112.20 21.01 113.80 21.02 C 113.78 21.52 113.75 22.51 113.73 23.00 C 115.52 21.88 117.42 20.95 119.53 20.56 C 119.36 22.28 119.19 24.00 119.01 25.72 C 117.48 26.15 115.40 25.84 114.33 27.23 C 113.88 31.47 114.23 35.75 114.14 40.00 C 112.43 40.00 110.71 40.00 109.00 40.00 C 109.00 33.66 109.00 27.33 109.00 20.99 Z" />
<path fill="#224056" d=" M 131.01 20.81 C 132.94 20.95 134.92 21.08 136.63 22.10 C 140.17 19.94 145.37 20.96 147.00 25.01 C 148.91 29.59 148.96 36.48 144.09 39.23 C 141.46 40.88 138.46 39.70 136.01 38.34 C 136.13 41.22 136.16 44.11 136.15 47.00 C 134.43 47.00 132.71 47.00 131.00 47.00 C 131.00 38.27 130.99 29.54 131.01 20.81 Z" />
<path fill="#224056" d=" M 151.00 20.99 C 152.60 21.00 154.20 21.01 155.80 21.02 C 155.78 21.52 155.75 22.51 155.73 23.00 C 157.51 21.86 159.43 20.97 161.53 20.56 C 161.36 22.28 161.19 24.00 161.02 25.72 C 159.46 26.27 156.27 25.66 156.24 28.00 C 155.96 31.99 156.19 36.00 156.14 40.00 C 154.43 40.00 152.71 40.00 151.00 40.00 C 151.00 33.66 151.00 27.33 151.00 20.99 Z" />
<path fill="#224056" d=" M 168.38 21.64 C 172.16 20.15 177.14 21.02 179.50 24.55 C 181.75 28.06 181.76 32.96 179.50 36.47 C 176.99 40.16 171.69 40.94 167.82 39.13 C 161.31 35.84 161.53 24.42 168.38 21.64 Z" />
<path fill="#224056" d=" M 184.01 20.81 C 185.94 20.95 187.93 21.06 189.64 22.11 C 191.95 21.02 194.82 20.32 197.12 21.84 C 200.92 24.06 201.51 29.14 200.99 33.12 C 200.70 36.40 198.26 39.52 194.90 39.98 C 192.75 40.47 190.89 39.14 189.01 38.34 C 189.13 41.22 189.16 44.11 189.15 47.00 C 187.43 47.00 185.71 47.00 184.00 47.00 C 184.00 38.27 183.99 29.54 184.01 20.81 Z" />
<path fill="#224056" d=" M 203.37 26.85 C 204.91 19.85 216.21 18.71 219.08 25.14 C 219.86 30.05 218.96 35.10 219.94 40.01 C 218.27 39.99 216.60 39.99 214.93 39.99 C 214.84 39.38 214.67 38.17 214.58 37.56 C 212.32 39.35 209.41 40.99 206.51 39.59 C 202.71 38.73 201.70 33.06 204.72 30.77 C 207.60 28.61 211.42 29.14 214.78 28.73 C 214.22 26.20 212.82 24.69 210.12 24.67 C 209.75 25.27 209.01 26.46 208.64 27.06 C 206.88 26.99 205.12 26.93 203.37 26.85 Z" />
<path fill="#224056" d=" M 229.27 21.08 C 231.70 20.43 233.85 21.90 235.96 22.86 C 235.91 22.40 235.82 21.47 235.78 21.00 C 237.32 21.00 238.86 21.00 240.40 21.00 C 240.33 27.33 240.54 33.67 240.33 40.00 C 240.38 43.05 238.09 45.68 235.21 46.45 C 231.89 47.70 228.34 46.71 225.08 45.79 C 225.37 44.55 225.68 43.31 226.00 42.07 C 228.21 42.64 230.49 43.29 232.80 42.93 C 234.88 42.38 235.04 39.99 235.85 38.38 C 233.38 39.16 230.76 40.80 228.11 39.65 C 224.21 38.34 222.87 33.71 223.18 29.98 C 223.13 26.20 225.18 21.75 229.27 21.08 Z" />
<path fill="#224056" d=" M 243.37 26.84 C 244.91 19.84 256.24 18.71 259.09 25.18 C 259.84 30.07 258.97 35.11 259.94 40.01 C 258.27 40.00 256.59 39.99 254.93 39.99 C 254.84 39.38 254.67 38.17 254.58 37.56 C 252.33 39.34 249.45 40.98 246.55 39.61 C 242.71 38.76 241.68 33.02 244.76 30.74 C 247.63 28.62 251.42 29.13 254.76 28.74 C 254.32 27.66 253.88 26.59 253.44 25.51 C 252.32 25.24 251.20 24.96 250.09 24.66 C 249.73 25.26 249.02 26.46 248.66 27.06 C 246.89 27.00 245.13 26.94 243.37 26.84 Z" />
<path fill="#224056" d=" M 280.38 21.64 C 284.37 20.04 289.76 21.18 291.88 25.18 C 293.80 28.83 293.67 33.75 291.06 37.03 C 287.38 41.51 279.01 41.03 276.34 35.71 C 273.92 31.02 275.02 23.76 280.38 21.64 Z" />
<path fill="#224056" d=" M 296.00 20.99 C 297.60 21.00 299.20 21.01 300.80 21.02 C 300.78 21.52 300.75 22.51 300.73 23.00 C 302.53 21.89 304.41 20.93 306.53 20.56 C 306.36 22.28 306.19 24.00 306.01 25.72 C 304.47 26.15 302.42 25.84 301.33 27.22 C 300.88 31.46 301.23 35.74 301.14 40.00 C 299.42 40.00 297.71 40.00 296.00 40.00 C 296.00 33.66 296.00 27.33 296.00 20.99 Z" />
<path fill="#ffffff" d=" M 95.34 25.42 C 102.41 22.18 103.36 37.45 96.12 35.98 C 92.28 34.30 92.31 27.86 95.34 25.42 Z" />
<path fill="#ffffff" d=" M 136.22 25.71 C 138.05 25.35 140.56 24.20 141.87 26.18 C 143.38 28.75 143.55 32.42 141.90 34.96 C 140.48 36.81 138.05 35.59 136.20 35.36 C 136.11 32.14 136.12 28.93 136.22 25.71 Z" />
<path fill="#ffffff" d=" M 170.33 25.42 C 177.43 22.16 178.34 37.50 171.08 35.98 C 167.29 34.24 167.32 27.88 170.33 25.42 Z" />
<path fill="#ffffff" d=" M 189.23 25.69 C 191.06 25.36 193.55 24.20 194.87 26.17 C 196.37 28.74 196.55 32.37 194.93 34.92 C 193.53 36.82 191.06 35.59 189.20 35.36 C 189.11 32.14 189.12 28.91 189.23 25.69 Z" />
<path fill="#ffffff" d=" M 229.74 25.76 C 231.31 24.41 233.66 24.90 235.06 26.25 C 235.50 29.26 235.20 32.32 235.17 35.35 C 233.03 35.79 229.73 36.87 228.82 34.01 C 228.16 31.33 227.87 28.04 229.74 25.76 Z" />
<path fill="#ffffff" d=" M 282.35 25.40 C 286.88 23.10 289.12 29.46 287.74 32.90 C 287.46 36.38 282.26 37.24 280.89 34.04 C 279.92 31.27 279.74 27.34 282.35 25.40 Z" />
<path fill="#ffffff" d=" M 207.80 33.67 C 210.12 33.21 212.48 32.97 214.85 32.83 C 214.31 35.84 211.26 35.96 208.88 36.29 C 208.61 35.64 208.07 34.32 207.80 33.67 Z" />
<path fill="#ffffff" d=" M 247.50 34.93 C 249.18 32.49 252.32 33.05 254.86 32.91 C 254.07 36.20 249.90 36.93 247.50 34.93 Z" />
<path fill="#224056" d=" M 307.36 40.39 C 312.57 40.50 317.79 40.46 323.00 40.45 L 323.00 43.45 C 317.79 43.64 312.57 43.48 307.36 43.59 C 307.37 42.53 307.37 41.46 307.36 40.39 Z" />
</svg>
